<svg version="1.1" viewBox="0 0 48 52" height="42px" width="48px" xmlns:xlink="http://www.w3.org/1999/xlink" xmlns="http://www.w3.org/2000/svg" class="logo">
<g fill-rule="evenodd" stroke-width="1" stroke="none" id="Page-1">
<g transform="translate(-70.000000, -71.000000)" id="header-left">
<g transform="translate(0.000000, 50.000000)" id="Menu-principal">
<g transform="translate(70.000000, 21.000000)" id="logo">
<path id="imagotipo" d="M37.2224411 19.7850593C35.5767028 21.4279561 32.3139817 24.5353663 29.6972321 27.1246479 23.5194232 32.7452544 23.4206618 36.3677295 23.7528904 38.064754 19.2052439 32.7483183 22.8120039 28.7643106 25.1252804 26.5083063 26.1863237 25.4679639 32.7405214 19.0444621 34.2414553 17.617736 39.5492395 12.5688752 39.547699 11.0577234 39.547699 11.0577234 41.5648624 15.8054772 38.8666389 18.1448859 37.2224411 19.7850593L37.2224411 19.7850593ZM37.0649706 27.6635425C35.4495282 29.2392052 36.0980672 28.6082252 33.4808041 31.1622727 29.2237935 35.3059402 29.1996594 38.064754 29.1996594 38.064754 26.8237371 35.4693448 28.2820512 31.1549535 30.8371819 28.6660977 31.8983964 27.6293297 33.8744805 25.7653261 35.2821302 24.435281 38.1581927 21.7203822 39.0564594 20.9256573 39.4634865 19.8783361 40.5645821 24.4298342 38.1450131 26.5139233 37.0649706 27.6635425L37.0649706 27.6635425ZM19.4460711 24.3854086C20.6253886 23.249917 28.1324542 15.9035199 29.5656073 14.5167939 34.2168078 10.0124448 34.0074746 8.59814419 34.0074746 8.59814419 36.0159087 13.3453874 33.263084 15.9396051 31.6075894 17.5676934 29.8040382 19.3421648 25.238933 23.8056628 22.609175 26.3779231 16.0058534 32.8361482 18.3725329 38.0635625 18.3725329 38.0635625 14.1798798 34.972663 15.1202527 28.5895018 19.4460711 24.3854086L19.4460711 24.3854086ZM16.7052279 19.3164627C17.8922477 18.1503328 24.2699757 11.9275123 26.4290338 9.83797636 30.9629871 5.44818069 30.7000798 3.70417733 30.9051338 2.7897926 34.081075 6.03082011 32.1316924 9.31933707 30.4089305 11.0272552 28.8997808 12.5235985 21.8178856 19.6383356 18.9389133 22.2495747 18.2054772 22.9151079 13.4377143 27.2649035 13.7483762 31.2964006 11.0876376 27.945075 11.8032728 23.6977477 16.7052279 19.3164627L16.7052279 19.3164627ZM10.875737 17.5377358C11.9444827 16.4308401 20.0519904 8.56410157 21.4266055 7.1877585 24.7805568 3.83864568 24.1172978 1.13838517 24.1172978 1.13838517 27.9986042 4.07575252 26.5712707 7.2475033 24.4654446 9.27593273 22.7568892 10.930404 16.7024893 16.9867561 13.9056756 19.6539952 9.46671804 23.8958757 10.0057123 27.3988612 10.8454411 30.3966542 7.59264746 27.0752861 6.11636115 22.4689794 10.875737 17.5377358L10.875737 17.5377358ZM24.2718585 0.0905533656C10.8666654 0.0905533656 1.42108547e-14 10.896872 1.42108547e-14 24.2274508 1.42108547e-14 36.5360702 9.26560077 46.6921749 21.2395237 48.1764331L21.2395237 44.7594052C17.2389161 44.1612764 13.2472091 42.8136993 10.5871552 39.1839051L37.9558772 39.1839051C35.2953098 42.8136993 31.3041163 44.1612764 27.3035087 44.7594052L27.3035087 48.1764331C39.2774316 46.6921749 48.5430324 36.5360702 48.5430324 24.2274508 48.5430324 10.896872 37.6760247 0.0905533656 24.2718585 0.0905533656L24.2718585 0.0905533656Z"></path>

</g>
</g>
</g>
</g>
</svg>
