<svg xmlns:xlink="http://www.w3.org/1999/xlink" xmlns="http://www.w3.org/2000/svg" version="1.1" height="52" width="59" style=""><rect id="backgroundrect" width="100%" height="100%" x="0" y="0" fill="none" stroke="none" class="" style=""/>

<g class="currentLayer" style=""><title>Layer 1</title><g fill-rule="evenodd" stroke-width="1" stroke="none" id="Page-1" class="" fill="#ffffff" fill-opacity="1">
<g id="header-left" fill="#ffffff" fill-opacity="1">
<g id="Menu-principal" fill="#ffffff" fill-opacity="1">
<g id="logo" fill="#ffffff" fill-opacity="1">
<path id="imagotipo" d="M42.95092430007324,20.993671026760865 C41.30518600007324,22.636567826760864 38.04246490007324,25.743978026760864 35.42571530007324,28.333259626760864 C29.24790640007324,33.95386612676087 29.149145000073243,37.57634122676087 29.481373600073244,39.273365726760865 C24.93372710007324,33.956930026760865 28.540487100073243,29.972922326760866 30.853763600073243,27.716918026760865 C31.91480690007324,26.676575626760865 38.46900460007324,20.253073826760865 39.96993850007324,18.826347726760865 C45.27772270007324,13.777486926760865 45.276182200073244,12.266335126760865 45.276182200073244,12.266335126760865 C47.293345600073245,17.014088926760863 44.59512210007324,19.353497626760863 42.95092430007324,20.993671026760865 L42.95092430007324,20.993671026760865 zM42.793453800073245,28.872154226760863 C41.178011400073245,30.447816926760865 41.826550400073245,29.816836926760864 39.20928730007324,32.37088442676087 C34.95227670007324,36.514551926760866 34.928142600073244,39.273365726760865 34.928142600073244,39.273365726760865 C32.552220300073245,36.677956526760866 34.01053440007324,32.36356522676087 36.56566510007325,29.874709426760866 C37.62687960007324,28.837941426760864 39.60296370007324,26.973937826760864 41.01061340007324,25.643892726760864 C43.88667590007324,22.928993926760864 44.784942600073244,22.134269026760865 45.191969700073244,21.086947826760863 C46.293065300073245,25.638445926760863 43.87349630007324,27.722535026760863 42.793453800073245,28.872154226760863 L42.793453800073245,28.872154226760863 zM25.174554300073243,25.594020326760866 C26.353871800073243,24.458528726760864 33.86093740007324,17.112131626760863 35.29409050007324,15.725405626760864 C39.94529100007324,11.221056526760865 39.735957800073244,9.806755916760864 39.735957800073244,9.806755916760864 C41.74439190007324,14.553999126760864 38.99156720007324,17.148216826760866 37.33607260007324,18.776305126760864 C35.53252140007324,20.550776526760863 30.96741620007324,25.014274526760865 28.337658200073243,27.586534826760865 C21.73433660007324,34.04475992676086 24.10101610007324,39.27217422676087 24.10101610007324,39.27217422676087 C19.908363000073244,36.18127472676086 20.848735900073244,29.798113526760865 25.174554300073243,25.594020326760866 L25.174554300073243,25.594020326760866 zM22.433711100073243,20.525074426760863 C23.62073090007324,19.358944526760865 29.998458900073242,13.136124026760864 32.15751700007324,11.046588086760865 C36.69147030007324,6.656792416760864 36.42856300007324,4.9127890567608645 36.633617000073244,3.9984043267608653 C39.80955820007324,7.239431836760864 37.86017560007324,10.527948796760864 36.13741370007324,12.235866926760865 C34.628264000073244,13.732210226760865 27.546368800073243,20.846947326760866 24.66739650007324,23.458186426760864 C23.933960400073243,24.123719626760863 19.166197500073242,28.473515226760863 19.47685940007324,32.50501232676086 C16.816120800073243,29.153686726760863 17.531756000073244,24.906359426760865 22.433711100073243,20.525074426760863 L22.433711100073243,20.525074426760863 zM16.604220200073243,18.746347526760864 C17.672965900073244,17.639451826760865 25.780473600073243,9.772713296760864 27.155088700073243,8.396370226760865 C30.50904000007324,5.047257406760864 29.84578100007324,2.3469968967608645 29.84578100007324,2.3469968967608645 C33.727087400073245,5.284364246760864 32.29975390007324,8.456115026760864 30.193927800073244,10.484544456760863 C28.485372400073242,12.139015726760864 22.430972500073242,18.195367826760865 19.634158800073244,20.862606926760865 C15.195201240073242,25.104487426760866 15.734195500073243,28.607472926760863 16.573924300073244,31.605265926760865 C13.321130660073242,28.283897826760864 11.844844350073242,23.677591126760863 16.604220200073243,18.746347526760864 L16.604220200073243,18.746347526760864 zM30.000341700073243,1.2991650923608642 C16.595148600073244,1.2991650923608642 5.728483200073256,12.105483726760864 5.728483200073256,25.436062526760864 C5.728483200073256,37.74468192676086 14.994083970073243,47.90078662676086 26.96800690007324,49.38504482676086 L26.96800690007324,45.96801692676087 C22.967399300073243,45.36988812676086 18.97569230007324,44.02231102676087 16.31563840007324,40.39251682676086 L43.684360400073246,40.39251682676086 C41.02379300007324,44.02231102676087 37.032599500073246,45.36988812676086 33.031991900073244,45.96801692676087 L33.031991900073244,49.38504482676086 C45.00591480007324,47.90078662676086 54.27151560007324,37.74468192676086 54.27151560007324,25.436062526760864 C54.27151560007324,12.105483726760864 43.40450790007324,1.2991650923608642 30.000341700073243,1.2991650923608642 L30.000341700073243,1.2991650923608642 z" fill="#ffffff" fill-opacity="1"/>

</g>
</g>
</g>
</g></g></svg>